<svg width="13" height="12" viewBox="0 0 13 12" fill="none" xmlns="http://www.w3.org/2000/svg">
<path d="M12.2344 5.21045C12.4698 4.98025 12.5528 4.64241 12.4513 4.32835C12.3496 4.01429 12.0845 3.7901 11.7588 3.74252L8.86347 3.32033C8.74015 3.30231 8.6336 3.22469 8.57853 3.11248L7.28408 0.479619C7.13874 0.183822 6.84374 0 6.51498 0C6.18646 0 5.89147 0.183822 5.74612 0.479619L4.45144 3.11248C4.39637 3.22469 4.28957 3.30231 4.16626 3.32033L1.27088 3.74276C0.945474 3.7901 0.680408 4.01429 0.578643 4.32835C0.477118 4.64241 0.560206 4.98025 0.795581 5.21045L2.89049 7.25965C2.97981 7.34711 3.02075 7.47303 2.99968 7.59605L2.50522 10.4899C2.44967 10.815 2.58017 11.1372 2.84619 11.3314C3.11198 11.5258 3.45798 11.551 3.74938 11.397L6.33875 10.0307C6.44914 9.97252 6.58083 9.97252 6.69122 10.0307L9.28082 11.397C9.40725 11.4638 9.54421 11.4967 9.68046 11.4967C9.85741 11.4967 10.0336 11.4412 10.184 11.3314C10.45 11.1372 10.5805 10.815 10.525 10.4899L10.0303 7.59629C10.0092 7.47303 10.0502 7.34735 10.1395 7.25989L12.2344 5.21045ZM9.55858 7.67751L10.053 10.5711C10.0779 10.7167 10.0217 10.8558 9.90242 10.9428C9.78294 11.0296 9.63424 11.0401 9.50375 10.9719L6.91414 9.60536C6.78939 9.53976 6.65195 9.5066 6.51498 9.5066C6.37802 9.5066 6.24082 9.53976 6.11583 9.6056L3.5267 10.9719C3.39572 11.0401 3.24703 11.0296 3.12778 10.9428C3.00854 10.8558 2.95251 10.7169 2.97717 10.5711L3.47163 7.67751C3.51928 7.3983 3.42709 7.11331 3.225 6.91579L1.12985 4.86636C1.02425 4.76303 0.988335 4.61742 1.03407 4.47685C1.07956 4.33604 1.19378 4.23944 1.3396 4.21805L4.23474 3.79586C4.51417 3.75526 4.75577 3.57936 4.88053 3.32514L6.17521 0.692276C6.24034 0.559636 6.36749 0.48058 6.51474 0.48058C6.66224 0.48058 6.78915 0.559636 6.85452 0.692276L8.1492 3.32514C8.27395 3.57936 8.51531 3.75526 8.79475 3.79586L11.6901 4.21805C11.8359 4.23944 11.9502 4.33604 11.9957 4.47685C12.0412 4.61742 12.0055 4.76303 11.8999 4.86636L9.80497 6.91555C9.60288 7.11331 9.51069 7.39806 9.55858 7.67751Z" fill="#9D2929"/>
</svg>
