<svg width="13" height="12" viewBox="0 0 13 12" fill="none" xmlns="http://www.w3.org/2000/svg">
<path d="M12.5156 5.21011C12.7509 4.97992 12.834 4.64208 12.7325 4.32802C12.6307 4.01397 12.3657 3.78978 12.04 3.74221L9.14473 3.32003C9.02142 3.302 8.91486 3.22439 8.85979 3.11218L7.56537 0.47961C7.42003 0.183818 7.12504 0 6.79629 0C6.46778 0 6.17279 0.183818 6.02745 0.47961L4.73279 3.11242C4.67772 3.22463 4.57093 3.30224 4.44761 3.32027L1.55229 3.74245C1.22689 3.78978 0.961594 4.01421 0.859832 4.32826C0.758309 4.64232 0.841395 4.98016 1.07677 5.21035L3.17163 7.25951C3.26095 7.34697 3.30189 7.47288 3.28082 7.59591L2.78661 10.4894C2.74279 10.7441 2.80936 10.9919 2.97362 11.1872C3.22886 11.4917 3.67446 11.5844 4.03075 11.3965L6.62006 10.0302C6.72829 9.97329 6.86453 9.97377 6.97252 10.0302L9.56207 11.3965C9.68802 11.4631 9.82235 11.4967 9.96098 11.4967C10.2141 11.4967 10.454 11.3838 10.619 11.1872C10.7835 10.9919 10.8498 10.7436 10.806 10.4894L10.3115 7.59591C10.2905 7.47264 10.3314 7.34697 10.4207 7.25951L12.5156 5.21011Z" fill="#9D2929"/>
</svg>
